<?xml version="1.0" standalone="no"?>
<!DOCTYPE svg PUBLIC "-//W3C//DTD SVG 20010904//EN"
 "http://www.w3.org/TR/2001/REC-SVG-20010904/DTD/svg10.dtd">
<svg version="1.0" xmlns="http://www.w3.org/2000/svg"
 width="600.000000pt" height="600.000000pt" viewBox="0 0 600.000000 600.000000"
 preserveAspectRatio="xMidYMid meet">
<metadata>
Created by potrace 1.11, written by Peter Selinger 2001-2013
</metadata>
<g transform="translate(0.000000,600.000000) scale(0.100000,-0.100000)"
fill="#000000" stroke="none">
<path d="M229 3473 c-1 -10 -2 -251 -3 -536 l-1 -518 200 2 c226 2 297 12 395
61 175 86 262 260 255 507 -7 233 -103 388 -285 458 -89 35 -144 42 -357 43
-188 1 -203 -1 -204 -17z m388 -98 c216 -22 340 -189 328 -440 -6 -133 -44
-232 -112 -297 -82 -78 -181 -108 -360 -108 l-123 0 0 424 0 425 38 3 c47 4
162 1 229 -7z"/>
<path d="M1319 3483 c-1 -10 -1 -1000 0 -1035 1 -27 2 -28 61 -28 33 0 60 3
61 8 1 9 1 1022 0 1045 -1 14 -11 17 -61 17 -33 0 -60 -3 -61 -7z"/>
<path d="M1631 3413 c23 -43 53 -98 67 -123 13 -25 40 -74 60 -110 19 -36 47
-87 62 -115 15 -27 50 -93 77 -145 l50 -95 -1 -203 -1 -202 63 0 c52 0 62 3
63 18 0 9 1 103 1 207 l0 190 39 68 c21 38 39 70 39 73 0 2 44 83 98 181 54
98 117 213 140 256 l42 77 -68 0 -68 0 -32 -62 c-18 -35 -48 -92 -68 -128 -42
-76 -118 -220 -154 -292 -30 -59 -27 -62 -97 72 -28 52 -87 166 -133 253 l-83
157 -69 0 -69 0 42 -77z"/>
<path d="M2979 3473 c-2 -10 -4 -250 -4 -533 l1 -515 57 -3 58 -3 -3 475 c-2
261 -2 474 -1 473 0 -1 33 -85 72 -187 39 -102 120 -313 180 -470 l109 -285
51 0 52 0 178 463 c98 254 180 464 182 466 2 3 3 -207 1 -465 l-3 -469 59 0
c39 0 61 4 64 13 3 10 2 1026 -1 1050 -1 4 -41 7 -91 7 l-90 0 -15 -37 c-17
-41 -238 -609 -265 -683 -16 -43 -27 -72 -52 -134 l-12 -29 -21 49 c-12 27
-89 226 -171 441 l-149 393 -91 0 c-79 0 -92 -2 -95 -17z"/>
<path d="M4329 3473 c-1 -20 -1 -1034 0 -1045 1 -5 28 -8 61 -8 l60 0 0 209 0
209 57 50 57 51 194 -260 194 -259 74 0 74 0 -124 169 c-69 93 -168 227 -220
298 -53 70 -95 133 -95 138 0 6 25 37 57 71 31 33 103 110 158 170 56 60 125
134 153 164 l51 55 -72 3 c-71 3 -73 2 -101 -30 -16 -18 -70 -78 -120 -132
-51 -55 -114 -125 -142 -155 -27 -30 -77 -83 -110 -119 -33 -35 -61 -68 -63
-73 -2 -5 -8 -9 -13 -9 -5 0 -9 109 -9 260 l0 260 -60 0 c-50 0 -60 -3 -61
-17z"/>
<path d="M5249 3473 c-1 -23 -1 -1024 0 -1040 1 -10 67 -13 296 -13 l295 0 0
55 0 55 -235 0 -235 0 0 195 0 195 220 0 220 0 0 55 0 55 -220 0 -220 0 0 175
0 175 235 0 235 0 0 55 0 55 -295 0 c-274 0 -295 -1 -296 -17z"/>
<path d="M2584 3230 c-13 -5 -27 -25 -34 -45 -26 -79 16 -147 87 -140 47 4 75
34 78 82 7 88 -53 135 -131 103z"/>
<path d="M2573 2575 c-41 -36 -38 -128 5 -161 28 -21 78 -17 109 10 24 21 28
31 28 76 -1 45 -5 56 -29 76 -33 29 -80 29 -113 -1z"/>
</g>
</svg>
